<?xml version="1.0" encoding="UTF-8"?>
<svg id="Layer_1" data-name="Layer 1" xmlns="http://www.w3.org/2000/svg" viewBox="0 0 507.78 88.17">
  <defs>
    <style>
      .cls-1 {
        fill: #d4af37;
        fill-rule: evenodd;
      }

      .cls-2 {
        fill: #fff;
      }
    </style>
  </defs>
  <path class="cls-1" d="M11.15,47.67l6.07-1.67c3.58-.98,6.21-3.75,7.02-7.6l1.4-6.65-4.42,1.12c-3.69.94-7.74,3.92-9.46,7.77.03-4.07-4.23-7.74-7.63-9.28l-4.13-1.88.08,6.78c.05,3.92,2.1,7.11,5.43,8.7l5.64,2.7ZM23.89,60.4c2.99-2.1,4.45-5.57,3.8-9.45l-1.12-6.7-3.74,2.52c-3.12,2.1-5.82,6.23-6.02,10.42-1.46-3.82-6.8-5.85-10.55-6.18l-4.56-.4,2.56,6.33c1.48,3.66,4.57,5.97,8.27,6.36l6.28.67,5.08-3.57ZM14.43,17.52l-.48-6.01c-.29-3.54,1.52-6.7,5.04-8.46l6.08-3.05.44,4.36c.38,3.72-.44,7.4-4.21,9.44l-6.87,3.72ZM81.48,31.59l-6.18-1.26c-3.64-.75-6.47-3.33-7.55-7.12l-1.88-6.54,4.49.83c3.75.69,8,3.4,10,7.13-.32-4.05,3.66-8,6.94-9.76l3.98-2.15.41,6.77c.24,3.92-1.58,7.23-4.78,9.03l-5.43,3.07ZM82.69,47.67l-6.07-1.67c-3.58-.98-6.21-3.75-7.02-7.6l-1.4-6.65,4.42,1.12c3.69.94,7.74,3.92,9.46,7.77-.03-4.07,4.23-7.74,7.63-9.28l4.13-1.88-.08,6.78c-.05,3.92-2.1,7.11-5.43,8.7l-5.64,2.7ZM69.95,60.4c-2.99-2.1-4.45-5.57-3.8-9.45l1.12-6.7,3.74,2.52c3.12,2.1,5.82,6.23,6.02,10.42,1.46-3.82,6.8-5.85,10.55-6.18l4.56-.4-2.56,6.33c-1.48,3.66-4.57,5.97-8.27,6.36l-6.28.67-5.08-3.57ZM39.41,88.17l-1.89-2.36-2.12-2.64c2.61-2.85,5.43-5.02,8.29-6.79-1.44-.96-2.92-1.7-4.36-2.08-2.56-.68-5.26-.56-7.82.51l-1.16.48c-3.41,1.42-7.3.9-10.5-1.56l-5.55-4.26,4.15-1.83c3.42-1.51,9.11-2.29,12.38.32-2.02-3.72-1.86-8.58-.27-11.89l1.91-3.96,4.49,5.26c2.6,3.04,3.16,6.74,1.68,9.99l-1.23,2.69c2.93,1.37,6.19,2.72,9.51,4.47,3.32-1.75,6.58-3.1,9.51-4.47l-1.23-2.69c-1.48-3.25-.92-6.94,1.68-9.99l4.49-5.26,1.91,3.96c1.59,3.3,1.76,8.17-.27,11.89,3.27-2.61,8.96-1.83,12.38-.32l4.15,1.83-5.55,4.26c-3.21,2.46-7.09,2.99-10.5,1.56l-1.16-.48c-2.57-1.07-5.27-1.19-7.82-.51-1.45.38-2.92,1.12-4.36,2.08,2.86,1.77,5.68,3.95,8.29,6.79l-2.12,2.64-1.89,2.36c-1.38-2.49-4.2-6.22-7.52-9.24-3.32,3.01-6.14,6.75-7.52,9.24ZM79.42,17.52l.48-6.01c.29-3.54-1.52-6.7-5.04-8.46l-6.08-3.05-.44,4.36c-.38,3.72.44,7.4,4.21,9.44l6.87,3.72ZM12.36,31.59l6.18-1.26c3.64-.75,6.47-3.33,7.55-7.12l1.88-6.54-4.49.83c-3.75.69-8,3.4-10,7.13.32-4.05-3.66-8-6.94-9.76l-3.98-2.15-.41,6.77c-.24,3.92,1.58,7.23,4.78,9.03l5.43,3.07Z"/>
  <path class="cls-2" d="M497.3,49.96c0,6.45-3.19,9.74-8.57,9.74s-8.5-3.29-8.5-9.74c0-5.68,3.11-9.39,8.5-9.39s8.57,3.78,8.57,9.39M507.78,49.82c0-10.72-6.87-17.44-19.05-17.44s-18.97,6.8-18.97,17.44c0,11.63,7.15,18.08,18.97,18.08s19.05-6.38,19.05-18.08ZM468.82,43.79v-10.37c-1.49-.77-3.4-1.12-5.03-1.12-4.6,0-7.15,2.66-9.28,5.96-.14-1.05-.28-2.59-.92-4.76h-12.04v1.12c3.33.84,3.61,4.98,3.61,11.84v7.36c0,7.21-.35,10.93-3.61,11.77v1.12c3.54-.07,6.58-.07,8.78-.07,2.97,0,5.95,0,8.85.07v-1.12c-3.19-.91-3.75-4.06-3.75-11.77v-2.52c0-6.52,2.9-9.67,7.72-9.67,2.62,0,3.47.98,4.25,2.17h1.42ZM430.1,46.19h-15.08c.92-4.27,3.33-6.45,7.65-6.45,4.04,0,6.94,2.03,7.43,6.45ZM440.3,49.97c0-11.07-6.09-17.59-17.13-17.59s-18.34,7.08-18.34,18.29c0,10.51,7.5,17.23,19.4,17.23,5.1,0,8.57-.98,11.68-2.31l1.2-9.25-1.2-.21c-3.04,2.94-7.22,4.13-11.05,4.13-5.38,0-9.2-2.73-10.12-7.57h25.35c.07-.84.21-2.1.21-2.73ZM404.23,66.72v-1.12c-3.19-.49-3.68-4.06-3.68-10.65v-23.19c0-6.59.5-10.09,3.68-10.65v-1.12c-3.26.07-6.37.14-8.92.14-2.97,0-6.23-.07-9.42-.14v1.12c3.33.56,3.68,4.34,3.68,10.65v6.03h-18.34v-6.03c0-7.01.71-10.16,3.75-10.65v-1.12c-3.33.07-6.37.14-8.92.14-3.05,0-6.3-.07-9.42-.14v1.12c3.47.56,3.61,4.62,3.61,10.65v23.19c0,5.96-.14,10.16-3.61,10.65v1.12c3.04-.07,6.16-.14,9.27-.14s6.16.07,9.06.14v-1.12c-3.04-.49-3.75-3.71-3.75-10.65v-7.85h18.34v7.85c0,6.31-.35,10.16-3.68,10.65v1.12c2.97-.07,6.09-.14,9.27-.14s6.16.07,9.06.14ZM355.86,58.1l-1.13-.07c-1.13.63-2.48,1.19-4.39,1.19-3.26,0-3.68-2.31-3.68-5.74v-12.33h8.07v-7.71h-8.07v-6.45h-2.97l-12.32,12.26v1.89h5.03v15.83c0,6.31.64,10.93,8.99,10.93,3.54,0,6.51-.42,9.91-1.54l.57-8.27ZM331.2,66.72v-1.12c-2.97-.84-3.54-4.2-3.54-11.77v-4.06c0-4.41.21-7.99-.5-10.3-1.35-4.62-5.31-7.15-11.26-7.15-5.52,0-8.92,2.17-11.33,6.02-.14-.98-.35-2.66-.92-4.83h-12.89v1.12c3.26.84,3.61,4.76,3.61,11.77v7.43c0,7.36-.42,10.93-3.61,11.77v1.12c2.69-.07,5.73-.14,8.78-.14,2.48,0,5.45.07,8.71.14v-1.12c-3.47-.63-3.61-4.41-3.61-11.77v-2.17c0-7.08,2.48-10.65,7.36-10.65s5.38,4.06,5.38,8.69v4.13c0,8.76-.64,11-3.33,11.77v1.12c2.76-.07,5.81-.14,8.71-.14s5.81.07,8.43.14ZM280.12,46.19h-15.08c.92-4.27,3.33-6.45,7.65-6.45,4.04,0,6.94,2.03,7.43,6.45ZM290.31,49.97c0-11.07-6.09-17.59-17.13-17.59s-18.34,7.08-18.34,18.29c0,10.51,7.5,17.23,19.4,17.23,5.1,0,8.57-.98,11.68-2.31l1.2-9.25-1.2-.21c-3.04,2.94-7.22,4.13-11.04,4.13-5.38,0-9.2-2.73-10.12-7.57h25.35c.07-.84.21-2.1.21-2.73ZM253.72,58.1l-1.13-.07c-1.13.63-2.48,1.19-4.39,1.19-3.26,0-3.68-2.31-3.68-5.74v-12.33h8.07v-7.71h-8.07v-6.45h-2.97l-12.32,12.26v1.89h5.03v15.83c0,6.31.64,10.93,8.99,10.93,3.54,0,6.51-.42,9.91-1.54l.57-8.27ZM229.06,66.72v-1.12c-2.97-.84-3.54-4.2-3.54-11.77v-4.06c0-4.41.21-7.99-.5-10.3-1.34-4.62-5.31-7.15-11.26-7.15-5.52,0-8.92,2.17-11.33,6.02-.14-.98-.35-2.66-.92-4.83h-12.89v1.12c3.26.84,3.61,4.76,3.61,11.77v7.43c0,7.36-.42,10.93-3.61,11.77v1.12c2.69-.07,5.73-.14,8.78-.14,2.48,0,5.45.07,8.71.14v-1.12c-3.47-.63-3.61-4.41-3.61-11.77v-2.17c0-7.08,2.48-10.65,7.36-10.65s5.38,4.06,5.38,8.69v4.13c0,8.76-.64,11-3.33,11.77v1.12c2.76-.07,5.81-.14,8.71-.14s5.81.07,8.43.14ZM177.36,49.97c0,6.45-3.19,9.74-8.57,9.74s-8.5-3.29-8.5-9.74c0-5.68,3.11-9.39,8.5-9.39s8.57,3.78,8.57,9.39ZM187.84,49.83c0-10.72-6.87-17.44-19.05-17.44s-18.97,6.8-18.97,17.44c0,11.63,7.15,18.08,18.97,18.08s19.05-6.38,19.05-18.08ZM147.54,54.6l-1.13-.21c-3.4,3.36-8,4.83-11.97,4.83-9.98,0-15.36-7.15-15.36-15.69,0-9.74,6.37-16.04,14.58-16.04,5.24,0,8.85,1.26,12.25,4.2h1.06v-11.7h-1.34c-.28.21-.71.56-1.27.56-2.41,0-7.01-1.75-11.05-1.75-7.22,0-12.74,1.33-17.91,6.17-5.02,4.7-7.58,11-7.58,18.78,0,9.81,5.81,18.76,15.01,22.35,3.9,1.52,7.5,1.82,11.19,1.82,5.52,0,9.28-1.26,12.39-2.31l1.13-11Z"/>
</svg>